<?xml version="1.0" standalone="no"?>
<!DOCTYPE svg PUBLIC "-//W3C//DTD SVG 20010904//EN"
 "http://www.w3.org/TR/2001/REC-SVG-20010904/DTD/svg10.dtd">
<svg version="1.0" xmlns="http://www.w3.org/2000/svg"
 width="20.000000pt" height="20.000000pt" viewBox="0 0 20.000000 20.000000"
 preserveAspectRatio="xMidYMid meet">

<g transform="translate(0.000000,20.000000) scale(0.100000,-0.100000)"
fill="#000000" stroke="none">
<path d="M31 167 c-7 -13 -11 -50 -9 -87 l3 -65 75 0 75 0 3 69 c4 89 -10 106
-83 106 -44 0 -54 -4 -64 -23z m129 -6 c5 -11 10 -47 10 -80 l0 -61 -70 0 -70
0 0 61 c0 85 10 99 70 99 39 0 52 -4 60 -19z"/>
<path d="M63 111 c2 -8 11 -19 20 -25 19 -12 48 1 54 25 3 8 0 7 -7 -3 -6 -10
-20 -18 -30 -18 -10 0 -24 8 -30 18 -7 10 -10 11 -7 3z"/>
</g>
</svg>
