<svg width="10" height="18" viewBox="0 0 10 18" fill="none" xmlns="http://www.w3.org/2000/svg">
<path  stroke="green" d="M5.73686 17.182H3.11637C2.67867 17.182 2.32261 16.8259 2.32261 16.3882V10.4776H0.793762C0.356057 10.4776 0 10.1214 0 9.68383V7.1511C0 6.7134 0.356057 6.35734 0.793762 6.35734H2.32261V5.08904C2.32261 3.83148 2.71749 2.76157 3.46444 1.99514C4.21476 1.22523 5.26332 0.818359 6.49679 0.818359L8.4953 0.821605C8.93226 0.822354 9.28769 1.17841 9.28769 1.61537V3.96694C9.28769 4.40465 8.93176 4.7607 8.49418 4.7607L7.1486 4.7612C6.73824 4.7612 6.63374 4.84348 6.6114 4.86869C6.57457 4.91052 6.53075 5.02874 6.53075 5.35521V6.35722H8.39305C8.53326 6.35722 8.66909 6.3918 8.78582 6.45697C9.03763 6.59767 9.19418 6.86371 9.19418 7.15123L9.19318 9.68395C9.19318 10.1214 8.83713 10.4775 8.39942 10.4775H6.53075V16.3882C6.53075 16.8259 6.17457 17.182 5.73686 17.182ZM3.28192 16.2227H5.57132V10.0481C5.57132 9.75586 5.80915 9.51816 6.10128 9.51816H8.23388L8.23475 7.31665H6.10116C5.80902 7.31665 5.57132 7.07894 5.57132 6.78668V5.35521C5.57132 4.98043 5.60939 4.55421 5.89229 4.23386C6.23412 3.84659 6.77282 3.8019 7.14835 3.8019L8.32839 3.8014V1.78066L6.49604 1.77767C4.51376 1.77767 3.28192 3.04659 3.28192 5.08904V6.78668C3.28192 7.07882 3.04421 7.31665 2.75208 7.31665H0.959306V9.51816H2.75208C3.04421 9.51816 3.28192 9.75586 3.28192 10.0481V16.2227ZM8.49343 1.78091H8.49356H8.49343Z" fill=""></path>
</svg>