<svg version="1.0" xmlns="http://www.w3.org/2000/svg"
 width="612.000000pt" height="532.000000pt" viewBox="0 0 612.000000 532.000000"
 preserveAspectRatio="xMidYMid meet">

<g transform="translate(0.000000,532.000000) scale(0.100000,-0.100000)"
fill="white" stroke="hsl(235, 11%, 56%)" stroke-width="200">
<path d="M3530 4483 c-63 -11 -101 -26 -130 -50 -55 -45 -71 -92 -86 -248 -7
-79 -18 -165 -25 -191 -33 -138 -118 -249 -286 -375 -320 -240 -496 -440 -647
-736 -65 -127 -111 -176 -181 -194 -27 -7 -54 -22 -65 -37 -20 -24 -20 -43
-20 -824 0 -849 0 -852 47 -876 25 -14 61 -18 388 -52 640 -65 828 -74 1240
-60 359 12 470 26 561 70 99 48 138 121 168 309 l15 94 74 71 c96 93 122 146
122 247 0 67 -4 83 -39 153 l-38 78 65 67 c132 133 138 225 27 412 l-40 67 41
91 c55 126 66 183 51 271 -22 128 -72 199 -172 243 -142 63 -285 78 -687 75
l-311 -3 -26 24 c-51 48 -38 92 153 513 91 200 115 296 109 433 -8 156 -79
345 -151 396 -25 18 -93 40 -117 38 -8 -1 -26 -4 -40 -6z"/>
<path d="M1365 2679 c-47 -26 -45 4 -45 -879 l0 -837 26 -24 c26 -24 26 -24
282 -27 280 -3 313 -1 343 29 19 19 19 40 19 858 0 811 -1 840 -19 862 l-19
24 -284 2 c-194 2 -289 -1 -303 -8z"/>
</g>
</svg>