
<svg width="18" height="15" viewBox="0 0 18 15" fill="none" xmlns="http://www.w3.org/2000/svg">
<path stroke="green" d="M17.6135 1.74142C17.4848 1.65429 17.3147 1.6587 17.1909 1.75277C17.0655 1.84771 16.8621 1.92935 16.6307 1.99631C17.2641 1.2569 17.2772 0.762598 17.2697 0.646242C17.2612 0.5143 17.1815 0.397424 17.062 0.341086C16.9419 0.285129 16.8013 0.298389 16.6945 0.375972C15.9345 0.928176 15.1779 1.04845 14.7231 1.06189C14.0172 0.390481 13.1019 0.0224609 12.1287 0.0224609C10.0366 0.0224609 8.33441 1.74711 8.33441 3.86689C8.33441 4.03851 8.34576 4.20978 8.36805 4.37963C4.79642 4.31884 1.89756 0.900024 1.86764 0.864062C1.79183 0.77322 1.67672 0.723789 1.55769 0.73514C1.43974 0.745415 1.334 0.812723 1.27485 0.915263C0.268023 2.66206 0.883091 4.20339 1.50066 5.12681C1.43689 5.0889 1.38465 5.05402 1.3489 5.02764C1.2398 4.94651 1.09421 4.93304 0.972198 4.9931C0.849975 5.05332 0.771873 5.17659 0.769582 5.31276C0.742298 6.98781 1.52506 7.96791 2.28561 8.52331C2.20327 8.53466 2.12604 8.57396 2.0681 8.63703C1.98097 8.73158 1.95032 8.8653 1.98788 8.98839C2.5153 10.7148 3.79435 11.3263 4.63897 11.5428C2.93043 12.8319 0.45415 12.4111 0.426693 12.406C0.262503 12.3771 0.0981751 12.4637 0.0306943 12.6171C-0.0366129 12.7703 0.00945036 12.9499 0.142642 13.0513C1.96379 14.4412 4.14185 14.7492 5.71502 14.7492C6.90468 14.7492 7.74822 14.573 7.82935 14.5554C15.7652 12.6748 16.0167 5.42391 16.0004 4.18826C17.4892 2.80223 17.7233 2.27023 17.7598 2.1379C17.8009 1.98815 17.7421 1.82875 17.6135 1.74142ZM15.3874 3.76716C15.3065 3.84155 15.2638 3.94888 15.2713 4.05867C15.2725 4.07815 15.394 6.04349 14.5182 8.23339C13.3481 11.1593 11.0413 13.0489 7.66922 13.848C7.63308 13.8556 4.51369 14.5016 1.77534 13.1992C2.94601 13.1502 4.56722 12.8204 5.70797 11.5398C5.80326 11.433 5.82592 11.2679 5.76729 11.1374C5.70866 11.0072 5.57849 10.9114 5.43575 10.9114C5.43506 10.9114 5.43433 10.9114 5.43329 10.9114C5.33748 10.9114 3.68597 10.899 2.89467 9.30399C3.21468 9.31781 3.59725 9.29896 3.90557 9.15691C4.04761 9.09138 4.13154 8.94517 4.11401 8.78987C4.09648 8.63453 3.98138 8.50942 3.82833 8.47718C3.73961 8.4584 1.8272 8.03161 1.53235 5.95383C1.82616 6.07623 2.19241 6.17103 2.55671 6.11646C2.69664 6.09556 2.81122 5.99497 2.85086 5.85914C2.89037 5.72348 2.84715 5.57692 2.74034 5.48393C2.65762 5.41208 0.854523 3.80826 1.68019 1.73593C2.65762 2.75412 5.44509 5.28937 8.82514 5.0956C8.93299 5.08939 9.03255 5.0352 9.09659 4.94808C9.16056 4.86095 9.18236 4.7499 9.15595 4.64511C9.09218 4.39115 9.05979 4.12938 9.05979 3.86692C9.05979 2.14707 10.4364 0.747915 12.1287 0.747915C12.9563 0.747915 13.7325 1.0782 14.3145 1.67807C14.3813 1.74697 14.4727 1.78644 14.5687 1.78824C14.9039 1.79144 15.456 1.7553 16.0797 1.52328C15.8937 1.7411 15.6336 1.99614 15.2698 2.28182C15.1441 2.38065 15.0979 2.55032 15.1561 2.69927C15.2146 2.84857 15.3663 2.94295 15.5229 2.92861C15.5962 2.92278 15.9517 2.89144 16.3682 2.80695C16.1295 3.06069 15.8113 3.37738 15.3874 3.76716Z" fill=""></path>
</svg>